<svg width="26" height="26" viewBox="0 0 26 26" fill="none" xmlns="http://www.w3.org/2000/svg">
<path d="M21.5459 11.2767H14.4982C13.8573 11.2767 13.2427 11.0222 12.7896 10.569C12.3364 10.1158 12.0818 9.50124 12.0818 8.86038V1.81269C12.0818 1.75929 12.0606 1.70807 12.0229 1.67031C11.9851 1.63254 11.9339 1.61133 11.8805 1.61133H7.24915C6.39467 1.61133 5.57519 1.95077 4.97099 2.55497C4.36678 3.15918 4.02734 3.97865 4.02734 4.83313V20.9421C4.02734 21.7966 4.36678 22.6161 4.97099 23.2203C5.57519 23.8245 6.39467 24.1639 7.24915 24.1639H18.5255C19.3799 24.1639 20.1994 23.8245 20.8036 23.2203C21.4078 22.6161 21.7473 21.7966 21.7473 20.9421V11.4781C21.7473 11.4247 21.726 11.3735 21.6883 11.3357C21.6505 11.2979 21.5993 11.2767 21.5459 11.2767Z" fill="#FFA703"/>
<path d="M21.1035 9.49533L13.864 2.25584C13.85 2.24185 13.8321 2.23232 13.8126 2.22847C13.7931 2.22462 13.7729 2.22662 13.7546 2.2342C13.7362 2.24179 13.7206 2.25463 13.7095 2.27111C13.6984 2.28759 13.6925 2.30697 13.6924 2.32682V8.86154C13.6924 9.07516 13.7772 9.28003 13.9283 9.43108C14.0793 9.58213 14.2842 9.66699 14.4978 9.66699H21.0326C21.0524 9.66691 21.0718 9.66096 21.0883 9.64989C21.1047 9.63882 21.1176 9.62313 21.1252 9.60478C21.1328 9.58644 21.1348 9.56626 21.1309 9.54678C21.1271 9.52731 21.1175 9.50941 21.1035 9.49533Z" fill="#FFA703"/>
</svg>
