<svg width="31" height="23" viewBox="0 0 31 23" fill="none" xmlns="http://www.w3.org/2000/svg">
<path d="M13.3466 22.5526C13.3466 22.5526 11.4672 22.5526 11.4672 20.6732C11.4672 18.7938 13.3466 13.1557 20.8641 13.1557C28.3817 13.1557 30.2611 18.7938 30.2611 20.6732C30.2611 22.5526 28.3817 22.5526 28.3817 22.5526H13.3466ZM20.8641 11.2763C22.3595 11.2763 23.7936 10.6823 24.8509 9.62493C25.9083 8.56757 26.5023 7.13348 26.5023 5.63815C26.5023 4.14282 25.9083 2.70874 24.8509 1.65138C23.7936 0.594018 22.3595 0 20.8641 0C19.3688 0 17.9347 0.594018 16.8774 1.65138C15.82 2.70874 15.226 4.14282 15.226 5.63815C15.226 7.13348 15.82 8.56757 16.8774 9.62493C17.9347 10.6823 19.3688 11.2763 20.8641 11.2763ZM9.99379 22.5526C9.71531 21.9659 9.57637 21.3226 9.58784 20.6732C9.58784 18.1267 10.8658 15.5049 13.2263 13.6819C12.0483 13.3181 10.8207 13.1406 9.58784 13.1557C2.0703 13.1557 0.190918 18.7938 0.190918 20.6732C0.190918 22.5526 2.0703 22.5526 2.0703 22.5526H9.99379ZM8.64815 11.2763C9.89426 11.2763 11.0893 10.7813 11.9705 9.90016C12.8516 9.01903 13.3466 7.82395 13.3466 6.57785C13.3466 5.33174 12.8516 4.13666 11.9705 3.25553C11.0893 2.3744 9.89426 1.87938 8.64815 1.87938C7.40204 1.87938 6.20697 2.3744 5.32583 3.25553C4.4447 4.13666 3.94969 5.33174 3.94969 6.57785C3.94969 7.82395 4.4447 9.01903 5.32583 9.90016C6.20697 10.7813 7.40204 11.2763 8.64815 11.2763Z" fill="#FFA703"/>
</svg>
