<svg width="33" height="32" viewBox="0 0 33 32" fill="none" xmlns="http://www.w3.org/2000/svg">
<path d="M30.2318 14.2741L27.3007 9.62365C27.0857 9.2863 26.7841 9.00716 26.4246 8.81279C26.065 8.61842 25.6594 8.51529 25.2464 8.5132H22.9451V8.18637C22.9452 7.71437 22.8477 7.24702 22.6584 6.81116C22.4691 6.37529 22.1916 5.9795 21.8419 5.64651C21.1351 4.97246 20.1778 4.59391 19.1797 4.59382H5.48053C4.73502 4.58945 4.00507 4.79779 3.38396 5.19222C2.76286 5.58665 2.2788 6.14926 1.99365 6.80815C1.80553 7.2452 1.71037 7.71373 1.71371 8.18637V19.9445C1.71419 20.4968 1.92401 21.0302 2.30427 21.4458C2.68453 21.8615 3.20944 22.1311 3.78169 22.2048C3.77483 22.3229 3.77483 22.441 3.78169 22.5579C3.77657 23.1146 3.88917 23.6666 4.11273 24.1806C4.33628 24.6947 4.66617 25.1602 5.08258 25.5493C5.4911 25.9558 5.98 26.2805 6.52088 26.5047C7.06176 26.7289 7.64383 26.8481 8.23326 26.8553C9.40978 26.8452 10.5354 26.3948 11.3689 25.6004C12.2017 24.8075 12.6749 23.733 12.6862 22.6091C12.693 22.5007 12.693 22.3919 12.6862 22.2835H20.2459C20.2391 22.3919 20.2391 22.5007 20.2459 22.6091C20.2405 23.166 20.353 23.7183 20.5766 24.2326C20.8002 24.7469 21.1302 25.2126 21.5468 25.6018C21.9556 26.0086 22.445 26.3336 22.9863 26.5579C23.5277 26.7821 24.1103 26.901 24.7003 26.9078C25.8768 26.8979 27.0024 26.4474 27.8358 25.6529C28.6681 24.8598 29.1408 23.7853 29.1518 22.6616C29.1587 22.5527 29.1587 22.4436 29.1518 22.3347H30.1892C30.4599 22.331 30.7185 22.2268 30.9103 22.0441C31.1021 21.8613 31.2121 21.6144 31.2171 21.3555V17.5805C31.2171 16.4123 30.8754 15.2678 30.2318 14.2741ZM10.6169 22.5566C10.6182 22.8567 10.5558 23.1541 10.4334 23.4305C10.3109 23.7069 10.1311 23.9566 9.90466 24.1645C9.44813 24.5794 8.84243 24.8108 8.21268 24.8108C7.58292 24.8108 6.97722 24.5794 6.5207 24.1645C6.2983 23.952 6.12217 23.6994 6.00251 23.4214C5.88285 23.1434 5.82204 22.8454 5.82359 22.5447C5.81751 22.2343 5.88311 21.9264 6.01571 21.643C6.19685 21.2322 6.50835 20.8856 6.90493 20.6494C7.31054 20.3929 7.78834 20.261 8.27443 20.2713C8.73825 20.2713 9.19109 20.4026 9.57532 20.6494C9.96916 20.8896 10.2793 21.2348 10.4673 21.643C10.6018 21.9252 10.6731 22.2337 10.6717 22.5447L10.6169 22.5566ZM15.0684 16.0251H8.22091C7.85839 16.0248 7.51074 15.8872 7.25389 15.6425C6.99704 15.3978 6.85185 15.0659 6.85004 14.7191C6.84967 14.5471 6.88487 14.3767 6.9536 14.2178C7.02233 14.0589 7.12323 13.9145 7.25051 13.793C7.37779 13.6715 7.52893 13.5752 7.69523 13.5098C7.86154 13.4444 8.03972 13.4111 8.21954 13.4118H15.0684C15.431 13.4125 15.7785 13.5503 16.0351 13.7953C16.2916 14.0402 16.4365 14.3724 16.4379 14.7191C16.4381 14.891 16.4028 15.0612 16.334 15.22C16.2652 15.3788 16.1642 15.523 16.037 15.6444C15.9097 15.7657 15.7586 15.8619 15.5924 15.9272C15.4262 15.9925 15.2481 16.0258 15.0684 16.0251ZM15.0684 11.5308H8.22091C7.85839 11.5305 7.51074 11.393 7.25389 11.1482C6.99704 10.9035 6.85185 10.5716 6.85004 10.2248C6.84985 10.0529 6.88518 9.88269 6.95399 9.7239C7.0228 9.56511 7.12374 9.42089 7.251 9.29953C7.37826 9.17817 7.52934 9.08206 7.69555 9.01672C7.86176 8.95138 8.03984 8.9181 8.21954 8.91879H15.0684C15.4307 8.91948 15.778 9.05717 16.0346 9.30184C16.2911 9.5465 16.4361 9.87828 16.4379 10.2248C16.4381 10.3967 16.4028 10.5669 16.334 10.7257C16.2652 10.8845 16.1642 11.0287 16.037 11.1501C15.9097 11.2715 15.7586 11.3676 15.5924 11.4329C15.4262 11.4982 15.2481 11.5315 15.0684 11.5308ZM27.0537 22.5566C27.0549 22.8568 26.9923 23.1542 26.8696 23.4307C26.747 23.7071 26.5668 23.9567 26.3401 24.1645C25.8836 24.579 25.2782 24.8101 24.6488 24.8101C24.0194 24.8101 23.4139 24.579 22.9575 24.1645C22.7348 23.9521 22.5585 23.6996 22.4386 23.4216C22.3187 23.1435 22.2576 22.8455 22.259 22.5447C22.2532 22.0688 22.4124 21.6044 22.7119 21.2243C23.0494 20.7951 23.5338 20.4892 24.0814 20.3619H24.4244C24.4872 20.3485 24.5524 20.3485 24.6152 20.3619H24.8896C25.3054 20.4079 25.702 20.5562 26.0396 20.7938C26.3785 21.0313 26.6434 21.3516 26.8067 21.7218C26.9425 22.004 27.0125 22.3124 27.0125 22.6222L27.0537 22.5566Z" fill="#FFA703"/>
<path d="M24.6438 20.2567C24.5811 20.2426 24.516 20.2426 24.4534 20.2567H24.6438Z" fill="#FFA703"/>
</svg>
