<svg width="29" height="24" viewBox="0 0 29 24" fill="none" xmlns="http://www.w3.org/2000/svg">
<mask id="mask0_364_306" style="mask-type:luminance" maskUnits="userSpaceOnUse" x="0" y="0" width="29" height="24">
<path d="M17.4 0H11.6C6.13205 0 3.39735 -1.72532e-07 1.6994 1.69624C0.4756 2.91631 0.1334 4.67334 0.0377 7.59834H28.9623C28.8666 4.67334 28.5244 2.91631 27.3006 1.69624C25.6026 -1.72532e-07 22.868 0 17.4 0ZM11.6 23.1568H17.4C22.868 23.1568 25.6026 23.1568 27.3006 21.4606C29 19.7658 29 17.0362 29 11.5784C29 10.9387 29 10.3366 28.9971 9.76929H0.00290014C1.35379e-07 10.3366 0 10.9387 0 11.5784C0 17.0362 -1.72853e-07 19.7658 1.6994 21.4606C3.39735 23.1568 6.13205 23.1568 11.6 23.1568Z" fill="white"/>
<path fill-rule="evenodd" clip-rule="evenodd" d="M4.7124 17.3687C4.7124 17.0808 4.82698 16.8047 5.03092 16.6011C5.23487 16.3976 5.51148 16.2832 5.7999 16.2832H11.5999C11.8883 16.2832 12.1649 16.3976 12.3689 16.6011C12.5728 16.8047 12.6874 17.0808 12.6874 17.3687C12.6874 17.6566 12.5728 17.9327 12.3689 18.1362C12.1649 18.3398 11.8883 18.4542 11.5999 18.4542H5.7999C5.51148 18.4542 5.23487 18.3398 5.03092 18.1362C4.82698 17.9327 4.7124 17.6566 4.7124 17.3687ZM14.1374 17.3687C14.1374 17.0808 14.252 16.8047 14.4559 16.6011C14.6599 16.3976 14.9365 16.2832 15.2249 16.2832H17.3999C17.6883 16.2832 17.9649 16.3976 18.1689 16.6011C18.3728 16.8047 18.4874 17.0808 18.4874 17.3687C18.4874 17.6566 18.3728 17.9327 18.1689 18.1362C17.9649 18.3398 17.6883 18.4542 17.3999 18.4542H15.2249C14.9365 18.4542 14.6599 18.3398 14.4559 18.1362C14.252 17.9327 14.1374 17.6566 14.1374 17.3687Z" fill="black"/>
</mask>
<g mask="url(#mask0_364_306)">
<path d="M-2.90015 -5.79102H31.8999V28.9442H-2.90015V-5.79102Z" fill="#FFA703"/>
</g>
</svg>
