<svg width="9" height="16" viewBox="0 0 9 16" fill="none" xmlns="http://www.w3.org/2000/svg">
<path d="M8.78745 7.50156L1.15003 0.190145C1.0226 0.0680889 0.853294 -3.56104e-07 0.677234 -3.638e-07C0.501173 -3.71496e-07 0.33187 0.0680889 0.204436 0.190145L0.196212 0.198407C0.134221 0.257577 0.0848586 0.3288 0.0511272 0.407742C0.0173957 0.486685 7.97762e-07 0.571697 7.94006e-07 0.657607C7.90251e-07 0.743517 0.0173957 0.828529 0.0511272 0.907472C0.0848586 0.986415 0.134221 1.05764 0.196212 1.11681L7.38824 8.00138L0.196212 14.8832C0.13422 14.9424 0.084858 15.0136 0.0511265 15.0925C0.0173951 15.1715 1.55869e-07 15.2565 1.52114e-07 15.3424C1.48359e-07 15.4283 0.0173951 15.5133 0.0511265 15.5923C0.084858 15.6712 0.13422 15.7424 0.196212 15.8016L0.204435 15.8099C0.331869 15.9319 0.501173 16 0.677233 16C0.853293 16 1.0226 15.9319 1.15003 15.8099L8.78745 8.49844C8.85461 8.43415 8.90809 8.35681 8.94462 8.27113C8.98116 8.18545 9 8.09321 9 8C9 7.90679 8.98116 7.81455 8.94462 7.72887C8.90809 7.64319 8.85461 7.56585 8.78745 7.50156Z" fill="#121212"/>
</svg>
