<svg width="168" height="85" viewBox="0 0 168 85" fill="none" xmlns="http://www.w3.org/2000/svg">
<path d="M114.543 40.6731L105.609 38.4082L107.89 43.6588L114.543 47.0717L115.517 52.7321L107.89 58.2259H120.246L121.957 48.2227L114.543 40.6731Z" fill="white"/>
<path d="M105.609 38.4082L100.286 43.1267H96.104L95.5337 58.2259H107.89M105.609 38.4082L114.543 40.6731L121.957 48.2227L120.246 58.2259H107.89M105.609 38.4082L107.89 43.6588L114.543 47.0717L115.517 52.7321L107.89 58.2259" stroke="white" stroke-width="1.01274"/>
<path d="M86.8559 29.6898L77.3671 25.5254L82.9743 35.2819L92.6515 41.9555L92.0305 49.7154L86.8559 58.2263H100.517L103.622 47.7128L95.9633 32.4434L86.8559 29.6898Z" fill="white"/>
<path d="M77.3671 25.5254L66.085 32.4434L64.6411 39.5966L71.8038 46.6463L70.297 58.2263H86.8559M77.3671 25.5254L86.8559 29.6898L95.9633 32.4434L103.622 47.7128L100.517 58.2263H86.8559M77.3671 25.5254L82.9743 35.2819L92.6515 41.9555L92.0305 49.7154L86.8559 58.2263" stroke="white" stroke-width="1.01274"/>
<path d="M69.7889 41.735L60.1258 37.4531L60.7623 43.0658L69.7889 49.3729L68.516 54.1755L62.4404 58.2259H75.5752L76.9061 49.3729L69.7889 41.735Z" fill="white"/>
<path d="M60.1258 37.4531L49.3055 44.3967L46.8174 51.2245L49.3055 58.2259H62.4404M60.1258 37.4531L69.7889 41.735L76.9061 49.3729L75.5752 58.2259H62.4404M60.1258 37.4531L60.7623 43.0658L69.7889 49.3729L68.516 54.1755L62.4404 58.2259" stroke="white" stroke-width="1.01274"/>
<path d="M166.914 58.2416C166.914 58.6145 129.549 58.9167 83.4572 58.9167C37.3651 58.9167 0 58.6145 0 58.2416C0 57.8687 37.3651 57.5664 83.4572 57.5664C129.549 57.5664 166.914 57.8687 166.914 58.2416Z" fill="white"/>
<path fill-rule="evenodd" clip-rule="evenodd" d="M126.192 45.8444C151.181 45.7277 168 45.5093 168 45.2591C168 45.009 151.181 44.7906 126.192 44.6739V45.8444Z" fill="white"/>
<path fill-rule="evenodd" clip-rule="evenodd" d="M41.8082 45.8444C16.8189 45.7277 0 45.5093 0 45.2591C0 45.009 16.8189 44.7906 41.8082 44.6739V45.8444Z" fill="white"/>
<path d="M41.1494 45.303V38.9276L51.4475 36.4751L55.0915 28.1377L48.9126 18.4923L58.4186 9.17398L67.2908 15.7133L75.6877 11.9533L77.4305 1H90.7388L93.1153 11.9533L100.72 15.7133L109.751 9.17398L118.94 18.4923L112.127 28.1377L116.405 36.4751L126.861 38.9276V45.303" stroke="white" stroke-width="1.35033"/>
<path d="M20.7275 83.9188H17.8296V68.1543H36.0747V83.9188H33.1768V70.6813H20.7275V83.9188Z" fill="white"/>
<path d="M58.568 68.2702L50.083 75.7352L58.9621 83.8029V83.9188H54.9051L47.6488 77.1493H44.635V83.9188H41.7371V68.1543H44.635V74.6224H47.5561L54.766 68.1543H58.568V68.2702Z" fill="white"/>
<path d="M85.3131 68.1543H88.3501V68.2702L81.372 80.6963C80.8929 81.5464 80.4138 82.2187 79.9347 82.7133C79.4555 83.2078 78.8837 83.5788 78.2191 83.826C77.5545 84.0733 76.7354 84.197 75.7617 84.197C74.7107 84.197 73.7448 84.1352 72.8638 84.0115L72.7711 81.3918C74.363 81.6082 76.0785 81.7318 77.9177 81.7628L79.1464 79.4908H77.4077L70.0819 68.2702V68.1543H73.397L79.5405 77.7753H80.0738L85.3131 68.1543Z" fill="white"/>
<path d="M91.375 83.9188V68.1543H103.129C104.582 68.1543 105.741 68.3243 106.606 68.6643C107.472 69.0043 108.098 69.5453 108.484 70.2871C108.886 71.029 109.087 72.0336 109.087 73.3009C109.087 74.5683 108.886 75.5806 108.484 76.3379C108.098 77.0798 107.472 77.6207 106.606 77.9607C105.756 78.2853 104.612 78.4476 103.175 78.4476H94.2728V83.9188H91.375ZM94.2728 70.6813V75.9438H105.888V70.6813H94.2728Z" fill="white"/>
<path d="M117.722 68.1543H122.103L130.38 83.8029V83.9188H127.203L125.256 80.1631H114.546L112.598 83.9188H109.515V83.8029L117.722 68.1543ZM119.901 69.893L115.867 77.6362H123.958L119.97 69.893H119.901Z" fill="white"/>
<path d="M136.711 68.1543H151.177V83.9188H148.279V70.6813H139.377L138.542 79.259C138.372 80.9745 137.885 82.2264 137.081 83.0146C136.278 83.8029 135.049 84.197 133.395 84.197C132.638 84.197 131.888 84.1506 131.147 84.0579L131.031 81.1136C132.762 81.2682 134.222 81.3532 135.412 81.3686L136.711 68.1543Z" fill="white"/>
</svg>
